<svg width="30" height="24" viewBox="0 0 30 24" fill="none" xmlns="http://www.w3.org/2000/svg">
<g filter="url(#filter0_d)">
<path opacity="0.24" fill-rule="evenodd" clip-rule="evenodd" d="M16.9034 0.5233C16.1075 0.810958 15.7676 0.88899 14.9998 0.88899C14.232 0.88899 13.8922 0.810958 13.0963 0.5233L13.0341 0.500814C12.0294 0.137542 11.4323 0 10.4453 0C8.05055 0 5.85231 2.2826 4.943 5.06478C4.24526 7.1996 4.05898 8.56701 4 11.5385C4.05825 14.4925 5.34092 15.9856 7.66063 16C9.11467 15.9917 10.1122 15.363 11.0342 14.2208C11.1764 14.0446 11.5676 13.5231 11.6094 13.4673L11.6131 13.4625C12.5621 12.235 13.5433 11.5652 15.0027 11.5556C16.4564 11.5652 17.4376 12.235 18.3866 13.4625L18.3902 13.4673C18.4321 13.5231 18.8232 14.0446 18.9655 14.2208C19.8875 15.363 20.885 15.9917 22.3278 16C24.6587 15.9856 25.9414 14.4925 25.9997 11.5727C25.9407 8.56701 25.7544 7.1996 25.0567 5.06478C24.1474 2.2826 21.9491 0 19.5544 0C18.5674 0 17.9702 0.137542 16.9656 0.500814L16.9034 0.5233ZM12.456 2.18913C13.4419 2.54547 14.0813 2.66676 14.9998 2.66676C15.9183 2.66676 16.5578 2.54547 17.5437 2.18913L17.6061 2.16655C18.4238 1.87087 18.828 1.77778 19.5544 1.77778C20.9794 1.77778 22.6138 3.47492 23.309 5.60189C23.9465 7.55254 24.1108 8.75828 24.1667 11.5727C24.1263 13.5619 23.5656 14.2146 22.3273 14.2222C21.5536 14.2178 21.0194 13.8811 20.4091 13.125C20.3079 12.9996 20.0221 12.62 19.9044 12.4636L19.9043 12.4634L19.9041 12.4633L19.904 12.4631L19.9037 12.4627L19.9037 12.4627L19.8535 12.3961C18.5953 10.7687 17.164 9.79184 14.9941 9.77782C12.8356 9.79184 11.4044 10.7687 10.1462 12.3961L10.096 12.4626C9.97878 12.6183 9.69198 12.9994 9.59053 13.125C8.98023 13.8811 8.44608 14.2178 7.6611 14.2222C6.43407 14.2146 5.87336 13.5619 5.83299 11.5384C5.88885 8.75828 6.05311 7.55254 6.69066 5.60189C7.38582 3.47492 9.02024 1.77778 10.4453 1.77778C11.1716 1.77778 11.5758 1.87087 12.3935 2.16655L12.456 2.18913ZM19.5832 5.77778C19.0769 5.77778 18.6665 5.37981 18.6665 4.88889C18.6665 4.39797 19.0769 4 19.5832 4C20.0894 4 20.4998 4.39797 20.4998 4.88889C20.4998 5.37981 20.0894 5.77778 19.5832 5.77778ZM18.6665 8.44444C18.6665 8.93536 19.0769 9.33333 19.5832 9.33333C20.0894 9.33333 20.4998 8.93536 20.4998 8.44444C20.4998 7.95352 20.0894 7.55556 19.5832 7.55556C19.0769 7.55556 18.6665 7.95352 18.6665 8.44444ZM21.4165 7.55556C20.9102 7.55556 20.4998 7.15759 20.4998 6.66667C20.4998 6.17575 20.9102 5.77778 21.4165 5.77778C21.9228 5.77778 22.3332 6.17575 22.3332 6.66667C22.3332 7.15759 21.9228 7.55556 21.4165 7.55556ZM16.8332 6.66667C16.8332 7.15759 17.2436 7.55556 17.7498 7.55556C18.2561 7.55556 18.6665 7.15759 18.6665 6.66667C18.6665 6.17575 18.2561 5.77778 17.7498 5.77778C17.2436 5.77778 16.8332 6.17575 16.8332 6.66667ZM10.4165 9.33333C8.89771 9.33333 7.6665 8.13943 7.6665 6.66667C7.6665 5.19391 8.89771 4 10.4165 4C11.9353 4 13.1665 5.19391 13.1665 6.66667C13.1665 8.13943 11.9353 9.33333 10.4165 9.33333ZM11.3332 6.66667C11.3332 7.15759 10.9228 7.55556 10.4165 7.55556C9.91024 7.55556 9.49983 7.15759 9.49983 6.66667C9.49983 6.17575 9.91024 5.77778 10.4165 5.77778C10.9228 5.77778 11.3332 6.17575 11.3332 6.66667Z" fill="black"/>
</g>
<defs>
<filter id="filter0_d" x="0" y="0" width="29.9997" height="24" filterUnits="userSpaceOnUse" color-interpolation-filters="sRGB">
<feFlood flood-opacity="0" result="BackgroundImageFix"/>
<feColorMatrix in="SourceAlpha" type="matrix" values="0 0 0 0 0 0 0 0 0 0 0 0 0 0 0 0 0 0 127 0"/>
<feOffset dy="4"/>
<feGaussianBlur stdDeviation="2"/>
<feColorMatrix type="matrix" values="0 0 0 0 0 0 0 0 0 0 0 0 0 0 0 0 0 0 0.25 0"/>
<feBlend mode="normal" in2="BackgroundImageFix" result="effect1_dropShadow"/>
<feBlend mode="normal" in="SourceGraphic" in2="effect1_dropShadow" result="shape"/>
</filter>
</defs>
</svg>
